{"title":"The Skeptic-AC3-5,1-DVDRip[Eng]2009","uid":5160949,"size":1326888338,"categoryP":"video","categoryS":"movies","magnet":"?xt=urn:btih:6415085ed6f845c51a035a750096199ae6fedfdc&amp;dn=The+Skeptic-AC3-5%2C1-DVDRip%5BEng%5D2009&amp;tr=udp%3A%2F%2Ftracker.openbittorrent.com%3A80&amp;tr=udp%3A%2F%2Fopen.demonii.com%3A1337&amp;tr=udp%3A%2F%2Ftracker.coppersurfer.tk%3A6969&amp;tr=udp%3A%2F%2Fexodus.desync.com%3A6969","seeders":0,"leechers":1,"uploader":"FatFreddy31","files":-1,"time":1258141746,"description":" &lt;a href=&quot;http://www.imdb.com/title/tt0493451/&quot; rel=&quot;nofollow&quot; target=&quot;_NEW&quot;&gt;http://www.imdb.com/title/tt0493451/&lt;/a&gt;\n\nUser Rating:5.8/10 - 547 votes\n\nHorror/Thriller \n\nDirector:Tennyson Bardwell\n\nCast:Tim Daly/Tom Arnold/Zoe Saldana/Andrea Roth, and others.\n\nPlot:\nAfter the mysterious death of his Aunt, a confirmed skeptic lawyer, Bryan Becket, dismisses reports that his Aunt's house is haunted and moves in. Immediately occurrences begin he cannot explain. And beyond the occurrences there is something about the house which gnaws at Becket - some strange connection he senses he has with the house's past. Soon, the haunting turns personal, he hears voices suggesting clues to a deep mystery. He questions his sanity, seeks medical help, but instead finds assistance in a young psychic who immediately declares, &quot;There's a very bad secret in this house.&quot; Together they embark on a terrifying journey to uncover the secret - a journey which leads them deep into the recesses of The Skeptic's own troubled mind.....\n\nInfo:\n\nCover included.\n\nGeneral\nComplete name                    : The Skeptic-AC3-5,1-DVDRip[Eng]2009.avi\nFormat                           : AVI\nFormat/Info                      : Audio Video Interleave\nFile size                        : 1.24 GiB\nDuration                         : 1h 28mn\nOverall bit rate                 : 1 988 Kbps\nWriting application              : VirtualDubMod 1.5.4.1 (build 2178/release)\nWriting library                  : VirtualDubMod build 2178/release\n\nVideo\nID                               : 0\nFormat                           : MPEG-4 Visual\nFormat profile                   : Simple@L3\nFormat settings, BVOP            : No\nFormat settings, QPel            : No\nFormat settings, GMC             : No warppoints\nFormat settings, Matrix          : Default (H.263)\nCodec ID                         : XVID\nCodec ID/Hint                    : XviD\nDuration                         : 1h 28mn\nBit rate                         : 1 530 Kbps\nWidth                            : 624 pixels\nHeight                           : 336 pixels\nDisplay aspect ratio             : 1.857\nFrame rate                       : 23.976 fps\nResolution                       : 24 bits\nColorimetry                      : 4:2:0\nScan type                        : Progressive\nBits/(Pixel*Frame)               : 0.304\nStream size                      : 974 MiB (77%)\nWriting library                  : XviD 1.1.2 (UTC 2006-11-01)\n\nAudio\nID                               : 1\nFormat                           : AC-3\nFormat/Info                      : Audio Coding 3\nCodec ID                         : 2000\nDuration                         : 1h 28mn\nBit rate mode                    : Constant\nBit rate                         : 448 Kbps\nChannel(s)                       : 6 channels\nChannel positions                : Front: L C R, Surround: L R, LFE\nSampling rate                    : 48.0 KHz\nStream size                      : 285 MiB (23%)\nAlignment                        : Split accross interleaves\nInterleave, duration             : 42 ms (1.00 video frame)\nInterleave, preload duration     : 500 ms\n\nEnjoy...","torrent":{"xt":"urn:btih:6415085ed6f845c51a035a750096199ae6fedfdc","amp;dn":"The+Skeptic-AC3-5%2C1-DVDRip%5BEng%5D2009","amp;tr":["udp%3A%2F%2Ftracker.openbittorrent.com%3A80","udp%3A%2F%2Fopen.demonii.com%3A1337","udp%3A%2F%2Ftracker.coppersurfer.tk%3A6969","udp%3A%2F%2Fexodus.desync.com%3A6969"],"infoHash":"6415085ed6f845c51a035a750096199ae6fedfdc","infoHashBuffer":{"type":"Buffer","data":[100,21,8,94,214,248,69,197,26,3,90,117,0,150,25,154,230,254,223,220]},"announce":[],"urlList":[]}}